<svg width="1788" height="316" viewBox="0 0 1788 316" fill="none" xmlns="http://www.w3.org/2000/svg">
<path d="M53.5688 269.386L53.5705 269.388C82.9542 299.463 119.548 314.5 163.318 314.5C190.073 314.5 212.975 310.024 232.007 301.05C251.022 292.085 269.015 278.643 285.99 260.736L286.322 260.386L285.985 260.042L248.357 221.65L248.014 221.3L247.657 221.636C243.275 225.766 239.268 229.96 235.446 233.959C233.133 236.38 230.888 238.73 228.669 240.951C222.761 246.864 216.999 251.911 210.471 255.188C197.343 261.49 182.204 264.648 165.04 264.648C136.755 264.648 113.203 254.33 94.3501 233.684C75.4897 212.743 66.0562 187.358 66.0562 157.5C66.0562 127.35 75.3484 101.966 93.9199 81.3152C112.772 60.6709 136.467 50.3522 165.04 50.3522C194.122 50.3522 217.684 66.3039 244.66 91.3663L245.032 91.7126L245.372 91.3339L283.846 48.4568L284.171 48.0951L283.818 47.7604C267.703 32.4499 250.429 20.7434 231.997 12.6479C213.828 4.54205 191.647 0.5 165.471 0.5C120.27 0.5 82.9556 15.6788 53.5688 46.0459C24.1892 76.4057 9.5 113.568 9.5 157.5C9.5 201.72 24.1886 239.026 53.5688 269.386ZM435.537 312.189L435.664 312.5H436H483H483.335L483.463 312.19L608.781 6.37742L609.064 5.68783H608.319H551.04H550.698L550.574 6.00663L460.599 237.399L370.194 6.00588L370.07 5.68783H369.729H311.158H310.414L310.695 6.3768L435.537 312.189ZM586.541 309.301L586.241 309.993L586.995 310L641.995 310.5L642.335 310.503L642.463 310.189L672.562 236.25H814.443L845.039 309.692L845.165 309.997L845.496 310L901.996 310.5L902.766 310.507L902.458 309.8L769.154 3.82652L769.023 3.52623H768.695H719.599H719.271L719.141 3.82714L586.541 309.301ZM983.613 308.812V309.312H984.113H1037.52H1038.02V308.812V55.9724H1133.12H1133.62V55.4724V6.18783V5.68783H1133.12H888.505H888.005V6.18783L888.005 51V51.5H888.505H983.614L983.613 308.812ZM1385.28 81.749L1385.28 81.7542C1404.71 102.408 1414.43 127.646 1414.43 157.5C1414.43 187.646 1404.86 213.029 1385.71 233.681L1385.71 233.684C1366.86 254.325 1342.74 264.648 1313.3 264.648C1283.86 264.648 1259.44 254.326 1240.02 233.682C1220.87 212.74 1211.3 187.356 1211.3 157.5C1211.3 127.352 1220.73 101.968 1239.59 81.3164C1258.73 60.674 1282.99 50.3522 1312.43 50.3522C1341.87 50.3522 1366.14 60.8173 1385.28 81.749ZM1385.65 81.4116C1405.17 102.163 1414.93 127.526 1414.93 157.5C1414.93 187.762 1405.31 213.269 1386.08 234.021C1367.13 254.772 1342.87 265.148 1313.3 265.148C1283.72 265.148 1259.17 254.772 1239.65 234.021L1385.65 81.4116ZM1529.68 309.5V309.995L1530.18 310L1583.15 310.5L1583.66 310.505V310L1583.66 203.826H1648.36L1723.09 309.788L1723.24 309.998L1723.5 310L1786 310.5L1786.97 310.508L1786.41 309.712L1705.42 194.533C1727.29 188.143 1744.67 177.352 1757.53 162.146L1757.53 162.143C1770.54 146.473 1777.03 126.611 1777.03 102.595C1777.03 73.0721 1767.07 49.5823 1747.14 32.1827C1727.21 14.499 1699.66 5.68783 1664.55 5.68783H1530.18H1529.68V6.18783L1529.68 309.5ZM1660.99 159.5L1583.66 161.311V52.9906L1662 51.5C1662 51.5 1662 51.5 1662 51.5C1681.66 51.5013 1695.16 59.3623 1706.02 67.9692C1716.79 76.505 1722.19 88.7422 1722.19 104.757C1722.19 120.475 1716.65 132.865 1705.58 141.983C1694.43 151.165 1679.79 159.5 1661 159.5L1660.99 159.5ZM692.363 188.127L743.288 68.8462L794.637 188.127H692.363ZM1312.43 314.5C1358.21 314.5 1396.1 299.177 1426.06 268.523C1456.01 237.878 1470.99 200.861 1470.99 157.5C1470.99 113.566 1456.15 76.4036 1426.49 46.0442C1396.81 15.6774 1359.07 0.5 1313.3 0.5C1267.52 0.5 1229.63 15.8225 1199.67 46.4765C1169.72 77.1218 1154.74 114.139 1154.74 157.5C1154.74 201.434 1169.57 238.596 1199.24 268.956C1228.92 299.323 1266.66 314.5 1312.43 314.5Z" stroke="black"/>
<path d="M729.276 57.4609L795.888 195.453H663.651L729.276 57.4609Z" fill="#FCEA00"/>
<path d="M153.318 316C109.677 316 73.2135 300.869 43.9281 270.608C14.6427 240.055 0 202.519 0 158C0 113.772 14.6427 76.3812 43.9281 45.8287C73.2135 15.2762 110.395 0 155.471 0C181.598 0 203.706 4.07366 221.794 12.221C240.169 20.3683 257.396 32.1528 273.474 47.5746L239.451 87.2928C212.463 61.9779 184.326 49.3204 155.04 49.3204C126.329 49.3204 102.499 59.7956 83.5496 80.7458C64.8873 101.696 55.5561 127.448 55.5561 158C55.5561 188.262 65.0308 214.013 83.9802 235.254C102.93 256.204 126.616 266.68 155.04 266.68C172.267 266.68 187.484 263.479 200.691 257.077C213.898 250.385 227.536 240.346 241.605 226.961L275.627 261.878C258.688 279.919 240.743 293.449 221.794 302.47C202.845 311.49 180.019 316 153.318 316Z" fill="#121212"/>
<path d="M426.482 312.945L301.158 5.23755H359.729L450.6 240.055L541.04 5.23755H598.319L472.994 312.945H426.482Z" fill="#121212"/>
<path d="M576.954 310.762L709.599 3.05524H758.695L891.341 310.762H835.354L804.777 237H662.226L631.218 310.762H576.954ZM681.606 189.425H785.397L733.286 67.2155L681.606 189.425Z" fill="#121212"/>
<path d="M974.113 310.762V54.9945H878.505V5.23755H1123.12V54.9945H1027.52V310.762H974.113Z" fill="#121212"/>
<path d="M1415.7 269.735C1385.84 300.578 1348.08 316 1302.43 316C1256.78 316 1219.17 300.724 1189.6 270.171C1160.03 239.619 1145.24 202.228 1145.24 158C1145.24 114.354 1160.17 77.1087 1190.03 46.2652C1219.89 15.4217 1257.64 0 1303.29 0C1348.95 0 1386.56 15.2762 1416.13 45.8287C1445.7 76.3812 1460.49 113.772 1460.49 158C1460.49 201.646 1445.56 238.891 1415.7 269.735ZM1229.65 235.254C1249.17 256.204 1273.72 266.68 1303.29 266.68C1332.87 266.68 1357.13 256.204 1376.08 235.254C1395.31 214.304 1404.93 188.552 1404.93 158C1404.93 127.738 1395.17 102.133 1375.65 81.1823C1356.41 59.9411 1332.01 49.3204 1302.43 49.3204C1272.86 49.3204 1248.46 59.7956 1229.22 80.7458C1210.27 101.696 1200.8 127.448 1200.8 158C1200.8 188.262 1210.41 214.013 1229.65 235.254Z" fill="#121212"/>
<path d="M1520.18 310.762V5.23755H1654.55C1689.58 5.23755 1717 14.1123 1736.81 31.8619C1756.62 49.3204 1766.53 72.8895 1766.53 102.569C1766.53 126.72 1760.07 146.652 1747.15 162.365C1734.23 177.786 1716.71 188.698 1694.6 195.099L1776 310.762H1713.55L1638.62 204.265H1573.16V310.762H1520.18ZM1573.16 156.691H1650.68C1669.62 156.691 1684.7 152.035 1695.9 142.724C1707.09 133.413 1712.69 120.755 1712.69 104.751C1712.69 88.4567 1707.24 75.9447 1696.33 67.2155C1685.42 58.4862 1670.06 54.1216 1650.24 54.1216H1573.16V156.691Z" fill="#121212"/>
</svg>
