<svg width="80" height="80" viewBox="0 0 80 80" fill="none" xmlns="http://www.w3.org/2000/svg">
<g id="palette-fill">
<path id="Vector" d="M40.0001 6.6665C58.4074 6.6665 73.3334 19.9258 73.3334 36.2962C73.3334 46.5185 65.0371 54.8145 54.8148 54.8145H48.2594C45.1854 54.8145 42.7038 57.2962 42.7038 60.3702C42.7038 61.7775 43.2594 63.0738 44.1111 64.0368C45.0001 65.0368 45.5558 66.3332 45.5558 67.7775C45.5558 70.8518 43.0001 73.3332 40.0001 73.3332C21.5927 73.3332 6.66675 58.4072 6.66675 39.9998C6.66675 21.5924 21.5927 6.6665 40.0001 6.6665ZM25.0001 39.9998C27.7615 39.9998 30.0001 37.7612 30.0001 34.9998C30.0001 32.2384 27.7615 29.9998 25.0001 29.9998C22.2386 29.9998 20.0001 32.2384 20.0001 34.9998C20.0001 37.7612 22.2386 39.9998 25.0001 39.9998ZM55.0001 39.9998C57.7614 39.9998 60.0001 37.7612 60.0001 34.9998C60.0001 32.2384 57.7614 29.9998 55.0001 29.9998C52.2388 29.9998 50.0001 32.2384 50.0001 34.9998C50.0001 37.7612 52.2388 39.9998 55.0001 39.9998ZM40.0001 29.9998C42.7614 29.9998 45.0001 27.7613 45.0001 24.9998C45.0001 22.2384 42.7614 19.9998 40.0001 19.9998C37.2387 19.9998 35.0001 22.2384 35.0001 24.9998C35.0001 27.7613 37.2387 29.9998 40.0001 29.9998Z" fill="#E8E8E8"/>
</g>
</svg>
