<svg width="80" height="80" viewBox="0 0 80 80" fill="none" xmlns="http://www.w3.org/2000/svg">
<g id="briefcase-2-fill">
<path id="Vector" d="M23.3334 16.6668V6.66683C23.3334 4.8259 24.8258 3.3335 26.6667 3.3335H53.3334C55.1744 3.3335 56.6668 4.8259 56.6668 6.66683V16.6668H70.0001C71.8411 16.6668 73.3334 18.1592 73.3334 20.0002V66.6668C73.3334 68.5078 71.8411 70.0002 70.0001 70.0002H10.0001C8.15915 70.0002 6.66675 68.5078 6.66675 66.6668V20.0002C6.66675 18.1592 8.15915 16.6668 10.0001 16.6668H23.3334ZM56.6668 43.3335V33.3335H50.0001V43.3335H30.0001V33.3335H23.3334V43.3335H13.3334V63.3335H66.6668V43.3335H56.6668ZM30.0001 10.0002V16.6668H50.0001V10.0002H30.0001Z" fill="#E8E8E8"/>
</g>
</svg>
