<svg width="80" height="80" viewBox="0 0 80 80" fill="none" xmlns="http://www.w3.org/2000/svg">
<g id="headphone-fill">
<path id="Vector" d="M13.3334 39.9998H23.3334C27.0153 39.9998 30.0001 42.9845 30.0001 46.6665V63.3332C30.0001 67.0152 27.0153 69.9998 23.3334 69.9998H13.3334C9.65151 69.9998 6.66675 67.0152 6.66675 63.3332V39.9998C6.66675 21.5903 21.5906 6.6665 40.0001 6.6665C58.4094 6.6665 73.3334 21.5903 73.3334 39.9998V63.3332C73.3334 67.0152 70.3488 69.9998 66.6668 69.9998H56.6668C52.9847 69.9998 50.0001 67.0152 50.0001 63.3332V46.6665C50.0001 42.9845 52.9847 39.9998 56.6668 39.9998H66.6668C66.6668 25.2722 54.7278 13.3332 40.0001 13.3332C25.2725 13.3332 13.3334 25.2722 13.3334 39.9998Z" fill="#E8E8E8"/>
</g>
</svg>
